<?xml version="1.0" encoding="UTF-8" standalone="no"?>
<svg
   version="1.1"
   width="500"
   height="500"
   id="svg360"
   sodipodi:docname="fav.svg"
   inkscape:export-filename="fav.svg"
   inkscape:export-xdpi="96"
   inkscape:export-ydpi="96"
   inkscape:version="1.2.2 (b0a8486541, 2022-12-01)"
   xmlns:inkscape="http://www.inkscape.org/namespaces/inkscape"
   xmlns:sodipodi="http://sodipodi.sourceforge.net/DTD/sodipodi-0.dtd"
   xmlns="http://www.w3.org/2000/svg"
   xmlns:svg="http://www.w3.org/2000/svg">
  <defs
     id="defs364" />
  <sodipodi:namedview
     id="namedview362"
     pagecolor="#ffffff"
     bordercolor="#000000"
     borderopacity="0.25"
     inkscape:showpageshadow="2"
     inkscape:pageopacity="0.0"
     inkscape:pagecheckerboard="0"
     inkscape:deskcolor="#d1d1d1"
     showgrid="false"
     inkscape:zoom="0.79725757"
     inkscape:cx="-91.563885"
     inkscape:cy="260.89436"
     inkscape:window-width="1366"
     inkscape:window-height="736"
     inkscape:window-x="0"
     inkscape:window-y="0"
     inkscape:window-maximized="1"
     inkscape:current-layer="svg360" />
  <path
     d="M0 0 C165 0 330 0 500 0 C500 165 500 330 500 500 C335 500 170 500 0 500 C0 335 0 170 0 0 Z "
     fill="#E1A8F0"
     transform="translate(0,0)"
     id="path352"
     style="fill:none" />
  <path
     d="m 249.04185,22.957889 c 8.2174,3.680197 13.82113,7.901203 20.15771,14.295038 1.84603,1.849675 3.69207,3.699349 5.59403,5.605094 1.99712,2.028192 3.99424,4.056407 6.05188,6.14607 2.12453,2.136378 4.24907,4.272779 6.43797,6.473901 7.02142,7.066933 14.02387,14.152612 21.02632,21.238566 4.8637,4.902582 9.72854,9.803994 14.59453,14.704279 11.49729,11.584013 22.9827,23.179843 34.46241,34.781483 13.07216,13.20966 26.15942,26.40416 39.24797,39.59739 26.91886,27.13484 53.81871,54.28869 80.7061,81.45512 -3.65843,8.26627 -7.85447,13.90335 -14.21048,20.27764 -1.83874,1.85702 -3.67749,3.71402 -5.57194,5.62731 -2.01619,2.00903 -4.03241,4.01802 -6.10971,6.08789 -2.12374,2.13718 -4.2475,4.27435 -6.4356,6.47627 -7.02513,7.06323 -14.06889,14.10735 -21.11294,21.15147 -4.87357,4.89264 -9.746,9.78644 -14.61729,14.68138 -11.51551,11.5657 -23.04273,23.11945 -34.57574,34.66749 -13.13154,13.14992 -26.24794,26.31505 -39.36315,39.4815 -26.97433,27.07905 -53.96754,54.13897 -80.97326,81.18636 -8.21738,-3.6802 -13.82113,-7.90121 -20.15769,-14.29505 -1.84604,-1.84966 -3.69207,-3.69936 -5.59404,-5.60507 -1.99712,-2.02821 -3.99425,-4.05642 -6.05189,-6.14608 -2.12451,-2.13637 -4.24904,-4.27277 -6.43794,-6.4739 -7.02143,-7.06694 -14.02388,-14.15261 -21.02635,-21.23857 -4.86367,-4.90258 -9.72855,-9.80399 -14.59453,-14.70428 -11.49729,-11.58402 -22.98268,-23.17984 -34.4624,-34.78149 -13.07217,-13.20965 -26.15942,-26.40414 -39.24797,-39.59738 -26.918854,-27.13485 -53.818711,-54.2887 -80.706098,-81.45512 3.658429,-8.26626 7.854471,-13.90335 14.210485,-20.27766 1.838738,-1.857 3.67746,-3.714 5.571913,-5.62731 2.016217,-2.00901 4.032418,-4.01801 6.109718,-6.08788 2.123762,-2.13717 4.247506,-4.27432 6.435622,-6.47626 7.025118,-7.06324 14.068883,-14.10734 21.112927,-21.15147 4.873579,-4.89264 9.746002,-9.78643 14.617286,-14.68138 11.515497,-11.5657 23.042737,-23.11945 34.575747,-34.66747 13.13152,-13.14994 26.24796,-26.3151 39.36315,-39.48154 26.97432,-27.079029 53.96755,-54.138956 80.97325,-81.186341 z"
     fill="#e1a8f0"
     id="path354"
     style="stroke-width:2.66229" />
  <path
     d="m 249.53955,10.44132 c 2.77183,-0.01063 2.77183,-0.01063 5.59963,-0.01913 65.12713,0.171101 120.48482,24.974409 166.43905,71.280479 27.69544,28.273971 45.91362,58.644021 58.39694,96.127231 0.71856,2.08524 1.43711,4.17048 2.17745,6.31892 6.67908,21.47423 7.26277,42.64386 7.11297,64.94209 -0.005,1.89507 -0.0105,3.79013 -0.0175,5.74264 -0.17539,28.95893 -2.2542,53.96352 -14.58239,80.53825 -0.78228,1.77137 -1.56456,3.54274 -2.37056,5.36777 -28.96324,65.25587 -75.28482,109.73009 -140.96735,136.15291 -24.69975,8.8701 -47.94365,12.40182 -74.06869,12.07328 -5.3883,-0.0572 -10.76717,-1.8e-4 -16.1552,0.0678 -35.08851,0.0841 -66.90703,-7.56063 -97.74125,-24.82452 -2.14004,-1.17029 -4.2801,-2.34059 -6.48501,-3.54636 -16.24131,-9.086 -30.82128,-19.05769 -44.446392,-31.8338 -2.189876,-1.96197 -4.379762,-3.92396 -6.636011,-5.94538 -25.865145,-24.35312 -44.228149,-54.38965 -57.06976,-87.51164 -1.23523,-2.74332 -2.470462,-5.48665 -3.743127,-8.31308 -18.9872593,-48.68167 -16.9739281,-117.3964 3.743127,-165.25002 0.68219,-1.62594 1.364396,-3.25187 2.067261,-4.92709 C 55.564257,98.798789 102.32348,50.727447 160.78221,27.130431 c 6.41233,-2.466784 12.72124,-4.735688 19.24444,-6.842374 3.10935,-1.058127 3.10935,-1.058127 6.28152,-2.137613 20.93885,-6.522003 41.41446,-7.690802 63.23074,-7.708762 z m -4.63314,16.019502 c -1.63937,1.654045 -3.27874,3.30807 -4.96777,5.012255 -1.8834,1.887253 -3.7668,3.774528 -5.70728,5.718977 -2.06586,2.097356 -4.1317,4.194691 -6.26015,6.355598 -2.17552,2.18769 -4.35107,4.375379 -6.59251,6.629382 -7.22264,7.269341 -14.42627,14.557472 -21.62999,21.845814 -4.9903,5.029939 -9.98165,10.058859 -14.97438,15.086376 -11.81794,11.904877 -23.62225,23.823296 -35.4218,35.746616 -13.43157,13.5711 -26.87816,27.12712 -40.32604,40.68185 -27.668371,27.88888 -55.317747,55.79676 -82.954738,83.71714 3.658429,8.26627 7.854471,13.90335 14.210485,20.27764 2.758108,2.78553 2.758108,2.78553 5.571913,5.62731 2.016217,2.00903 4.032418,4.01802 6.109718,6.08789 3.185625,3.20576 3.185625,3.20576 6.435622,6.47627 7.025118,7.06323 14.068883,14.10735 21.112927,21.15147 4.873579,4.89264 9.746002,9.78644 14.617286,14.68138 11.515497,11.5657 23.042737,23.11945 34.575747,34.66749 13.13152,13.14992 26.24796,26.31505 39.36315,39.4815 26.97432,27.07905 53.96755,54.13897 80.97325,81.18636 8.2174,-3.6802 13.82113,-7.90121 20.15771,-14.29505 1.84603,-1.84966 3.69207,-3.69936 5.59403,-5.60507 1.99712,-2.02821 3.99424,-4.05642 6.05188,-6.14608 2.12453,-2.13637 4.24907,-4.27277 6.43797,-6.4739 7.02142,-7.06694 14.02387,-14.15261 21.02632,-21.23857 4.8637,-4.90258 9.72854,-9.80399 14.59453,-14.70428 11.49729,-11.58402 22.9827,-23.17984 34.46241,-34.78149 13.07216,-13.20965 26.15942,-26.40414 39.24797,-39.59738 26.91886,-27.13485 53.81871,-54.2887 80.7061,-81.45512 -3.65489,-8.24946 -7.84399,-13.9012 -14.17476,-20.27766 -2.7466,-2.78552 -2.7466,-2.78552 -5.54867,-5.62731 -2.00788,-2.00901 -4.01574,-4.01801 -6.08447,-6.08788 -2.11519,-2.13717 -4.23042,-4.27432 -6.40973,-6.47626 -6.99883,-7.06401 -14.01692,-14.10825 -21.03638,-21.15147 -4.86051,-4.89301 -9.72022,-9.78682 -14.57917,-14.68138 -10.18453,-10.25302 -20.37836,-20.49655 -30.57944,-30.7329 -11.80412,-11.84526 -23.58894,-23.70969 -35.364,-35.58419 -11.3234,-11.41789 -22.66159,-22.820752 -34.00626,-34.217258 -4.83005,-4.855203 -9.65612,-9.714426 -14.47821,-14.577622 -6.72391,-6.77742 -13.4645,-13.537604 -20.20995,-20.293343 -3.01181,-3.045957 -3.01181,-3.045957 -6.08445,-6.153424 -1.83105,-1.826889 -3.66211,-3.6538 -5.54866,-5.536059 -1.59334,-1.600781 -3.18666,-3.201562 -4.82825,-4.850867 -5.66797,-4.758304 -7.84992,-4.657365 -13.48196,0.113288 z"
     fill="#020102"
     id="path356"
     style="stroke-width:2.66229" />
  <path
     d="m 264.96828,225.89319 c 7.66989,4.59579 8.9275,7.58185 13.27204,16.02122 1.10866,10.78089 -1.14002,18.71223 -6.47012,28.03711 -10.78196,6.34895 -21.1894,5.91481 -33.34597,4.0053 -6.96782,-3.67154 -6.96782,-3.67154 -10.61763,-10.6808 -1.89286,-12.19447 -2.10903,-22.65173 3.64981,-33.71128 11.04477,-5.81979 21.3653,-6.23355 33.51187,-3.67155 z"
     fill="#fefdfe"
     id="path358"
     style="stroke-width:2.66229" />
</svg>
