<?xml version="1.0" encoding="UTF-8" standalone="no"?>
<svg
   version="1.1"
   width="500"
   height="500"
   id="svg47"
   sodipodi:docname="favicon.svg"
   inkscape:export-filename="favicon.svg"
   inkscape:export-xdpi="96"
   inkscape:export-ydpi="96"
   inkscape:version="1.2.2 (b0a8486541, 2022-12-01)"
   xmlns:inkscape="http://www.inkscape.org/namespaces/inkscape"
   xmlns:sodipodi="http://sodipodi.sourceforge.net/DTD/sodipodi-0.dtd"
   xmlns="http://www.w3.org/2000/svg"
   xmlns:svg="http://www.w3.org/2000/svg">
  <defs
     id="defs51" />
  <sodipodi:namedview
     id="namedview49"
     pagecolor="#ffffff"
     bordercolor="#000000"
     borderopacity="0.25"
     inkscape:showpageshadow="2"
     inkscape:pageopacity="0.0"
     inkscape:pagecheckerboard="0"
     inkscape:deskcolor="#d1d1d1"
     showgrid="false"
     inkscape:zoom="0.77272577"
     inkscape:cx="164.35326"
     inkscape:cy="231.64751"
     inkscape:window-width="1366"
     inkscape:window-height="736"
     inkscape:window-x="0"
     inkscape:window-y="0"
     inkscape:window-maximized="1"
     inkscape:current-layer="svg47" />
  <path
     d="m 1.683483,1.7110469 c 198.876797,0 397.753657,0 602.657037,0 0,164.2210531 0,328.4421031 0,497.6395631 -198.8768,0 -397.75366,0 -602.657037,0 0,-164.22104 0,-328.4421 0,-497.6395631 z"
     fill="#000000"
     id="path39"
     style="fill:none;stroke-width:1.09528" />
  <path
     d="m 250.27264,13.738965 c 2.69024,0.0043 2.69024,0.0043 5.43486,0.0086 28.34572,0.130589 51.96932,3.042726 78.03499,14.421542 2.70773,0.946985 5.41548,1.893974 8.20526,2.869655 51.77211,18.812798 96.40197,63.577804 120.51293,112.448218 5.08796,11.17099 9.48054,22.55067 13.24627,34.23219 1.05034,3.05053 1.05034,3.05053 2.12192,6.16268 6.62965,21.12464 7.22801,41.91981 7.07946,63.8569 -0.005,1.86207 -0.0122,3.72412 -0.0175,5.64261 -0.17373,28.45444 -2.23259,53.02343 -14.44265,79.13523 -0.77479,1.74051 -1.54958,3.48101 -2.34784,5.27428 -28.68109,64.10868 -74.56252,107.83466 -139.61662,133.78103 -25.9712,9.19492 -49.75253,12.20469 -77.22605,11.80658 -1.78648,-0.018 -3.57296,-0.036 -5.41359,-0.0546 -58.25885,-0.68808 -110.72116,-18.74732 -153.967801,-58.97831 -2.168892,-1.9278 -4.337807,-3.8556 -6.572428,-5.84181 C 59.686624,394.57496 41.499568,365.06169 28.780999,332.51671 27.55761,329.82118 26.334201,327.12565 25.073727,324.34844 6.268414,276.51482 8.2624544,208.99716 28.780999,161.97717 c 0.675657,-1.59762 1.351334,-3.19524 2.047464,-4.84126 C 55.34891,100.09668 101.61387,52.957679 159.40802,29.645052 c 6.41914,-2.475297 12.6674,-4.70257 19.22435,-6.723194 2.24813,-0.698825 4.49624,-1.397651 6.81248,-2.117651 21.66884,-6.101482 42.3884,-7.170922 64.827,-7.065248 z"
     fill="#000000"
     id="path41"
     style="stroke-width:2.62632" />
  <path
     d="m 250.27264,13.738965 c 2.69024,0.0043 2.69024,0.0043 5.43486,0.0086 28.34572,0.130589 51.96932,3.042726 78.03499,14.421542 2.70773,0.946985 5.41548,1.893974 8.20526,2.869655 51.77211,18.812798 96.40197,63.577804 120.51293,112.448218 5.08796,11.17099 9.48054,22.55067 13.24627,34.23219 1.05034,3.05053 1.05034,3.05053 2.12192,6.16268 6.62965,21.12464 7.22801,41.91981 7.07946,63.8569 -0.005,1.86207 -0.0122,3.72412 -0.0175,5.64261 -0.17373,28.45444 -2.23259,53.02343 -14.44265,79.13523 -0.77479,1.74051 -1.54958,3.48101 -2.34784,5.27428 -28.68109,64.10868 -74.56252,107.83466 -139.61662,133.78103 -25.9712,9.19492 -49.75253,12.20469 -77.22605,11.80658 -1.78648,-0.018 -3.57296,-0.036 -5.41359,-0.0546 -58.25885,-0.68808 -110.72116,-18.74732 -153.967801,-58.97831 -2.168892,-1.9278 -4.337807,-3.8556 -6.572428,-5.84181 C 59.686624,394.57496 41.499568,365.06169 28.780999,332.51671 27.55761,329.82118 26.334201,327.12565 25.073727,324.34844 6.268414,276.51482 8.2624544,208.99716 28.780999,161.97717 c 0.675657,-1.59762 1.351334,-3.19524 2.047464,-4.84126 C 55.34891,100.09668 101.61387,52.957679 159.40802,29.645052 c 6.41914,-2.475297 12.6674,-4.70257 19.22435,-6.723194 2.24813,-0.698825 4.49624,-1.397651 6.81248,-2.117651 21.66884,-6.101482 42.3884,-7.170922 64.827,-7.065248 z m -7.38205,15.248489 c -1.62365,1.625228 -3.24728,3.250457 -4.92016,4.924932 -1.86536,1.854393 -3.73072,3.708786 -5.65259,5.619369 -2.04605,2.060807 -4.0921,4.121613 -6.20015,6.244866 -2.15468,2.149585 -4.30937,4.29917 -6.52937,6.513893 -7.15341,7.142723 -14.28801,14.30388 -21.42272,21.465248 -4.94249,4.942335 -9.88599,9.883635 -14.83087,14.82356 -11.70471,11.697488 -23.39592,23.408298 -35.08241,35.123898 -13.30289,13.33469 -26.62059,26.65456 -39.93964,39.97317 -27.403254,27.40304 -54.787694,54.82474 -82.159852,82.25871 3.623354,8.12229 7.779192,13.66116 14.074309,19.92441 2.731679,2.737 2.731679,2.737 5.518539,5.52931 1.996886,1.97399 3.993773,3.94799 6.05116,5.98182 3.155115,3.14989 3.155115,3.14989 6.373947,6.36345 6.957828,6.94018 13.934082,13.86159 20.910626,20.78299 4.826893,4.80739 9.652618,9.61594 14.477236,14.42561 11.405155,11.36424 22.821945,22.71672 34.244435,34.06355 13.00568,12.92088 25.99646,25.85666 38.98596,38.79375 26.71587,26.60731 53.45045,53.19585 80.19739,79.77204 8.13865,-3.61609 13.6887,-7.76358 19.96454,-14.04602 1.82836,-1.81745 3.6567,-3.6349 5.54045,-5.50744 1.97797,-1.99287 3.95596,-3.98575 5.99389,-6.03901 2.10417,-2.09916 4.20832,-4.19834 6.37627,-6.3611 6.95415,-6.94385 13.88949,-13.90608 20.82486,-20.86859 4.81708,-4.81718 9.63532,-9.63321 14.45469,-14.44813 11.38713,-11.38221 22.76246,-22.77604 34.13218,-34.1756 12.94691,-12.97953 25.90876,-25.94415 38.87189,-38.90756 26.66092,-26.66213 53.30301,-53.34294 79.93277,-80.03611 -3.61984,-8.10576 -7.76881,-13.65905 -14.03893,-19.9244 -2.72028,-2.73701 -2.72028,-2.73701 -5.49551,-5.5293 -1.98862,-1.974 -3.97724,-3.948 -6.02615,-5.98184 -2.09493,-2.09994 -4.1899,-4.19987 -6.34834,-6.36344 -6.93176,-6.94093 -13.88258,-13.86246 -20.83481,-20.78299 -4.81392,-4.80777 -9.62705,-9.61632 -14.43945,-14.42561 -10.08694,-10.07441 -20.18309,-20.13952 -30.28644,-30.19754 -11.69101,-11.6389 -23.36291,-23.29665 -35.02511,-34.96429 -11.2149,-11.21897 -22.44447,-22.423191 -33.68042,-33.621174 -4.78377,-4.770629 -9.5636,-9.545184 -14.3395,-14.323657 -6.65949,-6.65936 -13.33549,-13.301789 -20.01629,-19.939843 -2.98293,-2.992875 -2.98293,-2.992875 -6.02616,-6.046214 -1.81351,-1.795072 -3.62702,-3.590146 -5.4955,-5.439615 -1.57805,-1.5729 -3.15611,-3.145803 -4.78199,-4.76637 -5.61364,-4.67542 -7.7747,-4.576236 -13.35278,0.111258 z"
     fill="#dfa7ee"
     id="path43"
     style="stroke-width:2.62632" />
  <path
     d="m 256.48564,223.42881 c 6.73178,1.62732 9.83801,3.17498 14.65446,8.07604 5.17526,9.9735 6.08454,14.63223 3.77914,25.35544 -2.72204,7.97997 -4.77027,10.99526 -12.15898,15.31166 -10.77038,2.06985 -21.39631,3.16188 -30.92124,-2.99263 -5.84385,-6.35013 -8.4108,-12.25818 -10.15644,-20.62054 1.74536,-8.36088 4.29555,-14.2719 10.16671,-20.60002 7.93337,-5.17271 15.37224,-5.13803 24.63635,-4.52995 z"
     fill="#f7f7f7"
     id="path45"
     style="stroke-width:2.62632" />
</svg>
