<?xml version="1.0" encoding="UTF-8"?>
<svg version="1.1" xmlns="http://www.w3.org/2000/svg" width="500" height="500">
<path d="M0 0 C1.82241211 0.0009668 1.82241211 0.0009668 3.68164062 0.00195312 C15.53308426 0.05976505 24.14199185 1.16948742 34.9375 6.1875 C35.94296875 6.64382812 36.9484375 7.10015625 37.984375 7.5703125 C45.26586285 11.02241684 51.61298456 15.20841719 57.9375 20.1875 C58.62328125 20.70699219 59.3090625 21.22648437 60.015625 21.76171875 C76.88696018 35.37537742 85.00695417 54.70677116 89.9375 75.1875 C90.5975 74.8575 91.2575 74.5275 91.9375 74.1875 C94.99992321 74.10038225 98.03936465 74.0720154 101.1015625 74.08984375 C102.00877045 74.0912587 102.91597839 74.09267365 103.85067749 74.09413147 C106.75465155 74.09973904 109.65854915 74.11229282 112.5625 74.125 C114.52864472 74.13001402 116.49479065 74.1345771 118.4609375 74.13867188 C123.2864879 74.14971094 128.11198097 74.16698065 132.9375 74.1875 C133.1379744 74.79522247 133.33844879 75.40294495 133.54499817 76.02908325 C133.8109227 76.83175629 134.07684723 77.63442932 134.35083008 78.46142578 C134.61317947 79.25477325 134.87552887 80.04812073 135.14582825 80.86550903 C136.58759468 85.09424225 138.28787612 89.22118199 139.94921875 93.3671875 C140.9375 96.1875 140.9375 96.1875 140.9375 99.1875 C141.5975 99.5175 142.2575 99.8475 142.9375 100.1875 C143.2675 100.8475 143.5975 101.5075 143.9375 102.1875 C143.6075 102.8475 143.2775 103.5075 142.9375 104.1875 C143.5975 104.5175 144.2575 104.8475 144.9375 105.1875 C145.2675 106.1775 145.5975 107.1675 145.9375 108.1875 C146.9275 108.5175 147.9175 108.8475 148.9375 109.1875 C150.83249785 105.73894536 151.93390115 102.19949615 153.0625 98.4375 C153.41570312 97.26703125 153.76890625 96.0965625 154.1328125 94.890625 C154.39835938 93.99859375 154.66390625 93.1065625 154.9375 92.1875 C155.5975 92.1875 156.2575 92.1875 156.9375 92.1875 C157.123125 90.640625 157.123125 90.640625 157.3125 89.0625 C157.88088001 85.53854393 158.70418356 82.52470919 159.9375 79.1875 C160.246875 78.259375 160.55625 77.33125 160.875 76.375 C161.225625 75.653125 161.57625 74.93125 161.9375 74.1875 C165.40016994 73.03327669 167.80498282 73.19205965 171.4375 73.4375 C173.15453125 73.53804687 173.15453125 73.53804687 174.90625 73.640625 C178.05505953 74.20870919 179.05095467 74.68108977 180.9375 77.1875 C181.5975 76.5275 182.2575 75.8675 182.9375 75.1875 C188.55171686 73.12320585 195.40296777 73.88309846 201.32617188 73.83740234 C202.89338056 73.82087471 204.46051486 73.79362631 206.02734375 73.75537109 C221.66974143 73.37618144 221.66974143 73.37618144 227.69628906 77.71630859 C229.18671398 79.48289013 229.55087844 80.93100315 229.9375 83.1875 C230.5975 83.1875 231.2575 83.1875 231.9375 83.1875 C231.9375 94.0775 231.9375 104.9675 231.9375 116.1875 C234.2475 117.1775 236.5575 118.1675 238.9375 119.1875 C238.9375 121.4975 238.9375 123.8075 238.9375 126.1875 C234.6475 126.5175 230.3575 126.8475 225.9375 127.1875 C225.6075 125.8675 225.2775 124.5475 224.9375 123.1875 C223.03165804 123.39126178 223.03165804 123.39126178 220.9375 124.1875 C219.9475 125.5075 218.9575 126.8275 217.9375 128.1875 C221.2375 128.5175 224.5375 128.8475 227.9375 129.1875 C228.03515625 136.90234375 228.03515625 136.90234375 227.9375 139.1875 C226.09148688 141.03351312 223.08444509 140.32491323 220.61352539 140.33276367 C219.95334915 140.33612228 219.29317291 140.3394809 218.61299133 140.34294128 C216.42036075 140.35247695 214.22780631 140.3543957 212.03515625 140.35546875 C210.5167996 140.35867955 208.99844327 140.36204349 207.48008728 140.36555481 C204.29311404 140.37155265 201.10616794 140.37339404 197.91918945 140.37280273 C193.828804 140.37270108 189.73859203 140.38635343 185.64824772 140.40357494 C182.51105444 140.41467571 179.37390334 140.41672254 176.23669243 140.41619301 C174.7283614 140.41737603 173.22002939 140.42181575 171.71171761 140.42952538 C169.60464341 140.43928662 167.49794902 140.43646282 165.39086914 140.43041992 C164.19031387 140.43184494 162.98975861 140.43326996 161.75282288 140.43473816 C158.9375 140.1875 158.9375 140.1875 156.9375 138.1875 C156.6875 134.6875 156.6875 134.6875 156.9375 131.1875 C160.02393773 128.10106227 163.73509417 128.82884992 167.8828125 128.7734375 C169.21033035 128.74438828 169.21033035 128.74438828 170.56466675 128.7147522 C173.39717916 128.65487277 176.22973203 128.60853787 179.0625 128.5625 C180.98048668 128.52432789 182.89845607 128.48527662 184.81640625 128.4453125 C189.52329748 128.34916445 194.23026896 128.26516458 198.9375 128.1875 C198.66132467 126.24675139 198.66132467 126.24675139 197.9375 124.1875 C196.9475 123.5275 195.9575 122.8675 194.9375 122.1875 C194.9375 121.5275 194.9375 120.8675 194.9375 120.1875 C194.2775 120.1875 193.6175 120.1875 192.9375 120.1875 C190.65687172 116.76655758 190.71824993 115.50562778 190.8125 111.5 C190.83054687 110.50613281 190.84859375 109.51226562 190.8671875 108.48828125 C190.90199219 107.34939453 190.90199219 107.34939453 190.9375 106.1875 C191.5975 106.1875 192.2575 106.1875 192.9375 106.1875 C192.9375 105.1975 192.9375 104.2075 192.9375 103.1875 C193.5975 103.1875 194.2575 103.1875 194.9375 103.1875 C194.97875 102.56875 195.02 101.95 195.0625 101.3125 C195.9375 99.1875 195.9375 99.1875 198.625 98 C201.9375 97.1875 201.9375 97.1875 205.25 96.6875 C206.136875 96.5225 207.02375 96.3575 207.9375 96.1875 C208.2675 95.5275 208.5975 94.8675 208.9375 94.1875 C211.44019558 93.58200913 213.94653559 93.22987512 216.4921875 92.84765625 C219.19991938 92.11665515 220.30104211 91.44658328 221.9375 89.1875 C221.70706136 86.53283951 221.70706136 86.53283951 220.9375 84.1875 C215.20446495 82.61449038 210.78090558 81.94422222 204.9375 83.1875 C204.9375 83.8475 204.9375 84.5075 204.9375 85.1875 C202.03201118 87.22919485 200.53607954 88.1875 196.9375 88.1875 C196.195 87.3625 195.4525 86.5375 194.6875 85.6875 C192.08310208 82.80924142 192.08310208 82.80924142 188.125 82.875 C187.073125 82.978125 186.02125 83.08125 184.9375 83.1875 C184.64875 83.765 184.36 84.3425 184.0625 84.9375 C182.9375 87.1875 182.9375 87.1875 181.87939453 88.79785156 C180.47424821 92.3628003 180.69279971 95.89845481 180.7421875 99.671875 C180.7450174 100.48746887 180.74784729 101.30306274 180.75076294 102.14337158 C180.76193442 104.74156528 180.78703325 107.33941095 180.8125 109.9375 C180.82253373 111.70181793 180.83165889 113.46614128 180.83984375 115.23046875 C180.86186381 119.54961273 180.89637267 123.86849741 180.9375 128.1875 C176.6475 128.1875 172.3575 128.1875 167.9375 128.1875 C168.2675 126.8675 168.5975 125.5475 168.9375 124.1875 C169.08860957 121.35361169 169.19381534 118.53889452 169.25390625 115.703125 C169.2850779 114.47973419 169.2850779 114.47973419 169.31687927 113.23162842 C169.38211297 110.63366895 169.44113768 108.03561087 169.5 105.4375 C169.54321014 103.673167 169.58682522 101.90884387 169.63085938 100.14453125 C169.73776745 95.82562116 169.83910827 91.50661216 169.9375 87.1875 C169.2775 87.1875 168.6175 87.1875 167.9375 87.1875 C167.81375 87.744375 167.69 88.30125 167.5625 88.875 C166.87773145 91.40864364 165.94616237 93.76671032 164.9375 96.1875 C164.2775 96.1875 163.6175 96.1875 162.9375 96.1875 C163.13891602 96.74526123 163.34033203 97.30302246 163.54785156 97.87768555 C164.05137684 100.86255563 163.34883286 102.37001235 162.171875 105.14453125 C161.77613281 106.09263672 161.38039063 107.04074219 160.97265625 108.01757812 C160.54855469 109.00177734 160.12445313 109.98597656 159.6875 111 C159.07455078 112.45889648 159.07455078 112.45889648 158.44921875 113.94726562 C156.9939835 117.40286445 155.51541631 120.84804641 154.0300293 124.29077148 C152.69881582 127.37897116 151.41264862 130.46923946 150.25 133.625 C149.816875 134.800625 149.38375 135.97625 148.9375 137.1875 C148.2775 137.1875 147.6175 137.1875 146.9375 137.1875 C146.9375 138.1775 146.9375 139.1675 146.9375 140.1875 C146.2775 140.1875 145.6175 140.1875 144.9375 140.1875 C144.751875 140.785625 144.56625 141.38375 144.375 142 C142.25754164 145.22221924 139.55395288 146.28007501 135.9375 147.1875 C130.61854833 147.72602314 125.75835568 147.75862303 120.9375 145.1875 C120.9375 143.2075 120.9375 141.2275 120.9375 139.1875 C124.43523668 137.26938634 126.62984967 137.18847874 130.4375 137.875 C134.19917035 138.4070166 134.6017543 138.43037987 137.875 136.0625 C141.20653364 131.6007785 141.20653364 131.6007785 141.78125 126.22265625 C140.80506316 120.88178786 138.68529712 116.49236034 136.1640625 111.72265625 C134.59322987 108.47593531 133.65304847 105.19422722 132.6953125 101.7265625 C131.41307188 97.43039546 129.66917725 93.31891273 127.9375 89.1875 C123.93745926 90.47587737 122.18050247 91.6663916 120 95.25 C119.49984375 96.04664063 118.9996875 96.84328125 118.484375 97.6640625 C117.97390625 98.49679687 117.4634375 99.32953125 116.9375 100.1875 C115.88410807 101.83917765 114.82191749 103.48528463 113.75 105.125 C113.04810547 106.22134766 113.04810547 106.22134766 112.33203125 107.33984375 C110.9375 109.1875 110.9375 109.1875 107.9375 111.1875 C107.20784634 113.75032742 107.20784634 113.75032742 106.9375 116.1875 C109.66251908 117.09583969 111.55983971 117.37109985 114.38671875 117.50390625 C115.23427734 117.54580078 116.08183594 117.58769531 116.95507812 117.63085938 C117.83615234 117.67017578 118.71722656 117.70949219 119.625 117.75 C120.51767578 117.79318359 121.41035156 117.83636719 122.33007812 117.88085938 C124.53240108 117.98685353 126.73483473 118.08892051 128.9375 118.1875 C130.9375 123.9375 130.9375 123.9375 130.9375 126.1875 C127.90577648 126.92246328 125.45861978 127.17098689 122.3125 127.0625 C118.97448569 126.85803135 118.97448569 126.85803135 117 128.6875 C116.649375 129.1825 116.29875 129.6775 115.9375 130.1875 C116.2675 130.1875 116.5975 130.1875 116.9375 130.1875 C116.96439216 131.66656892 116.98384621 133.14577483 117 134.625 C117.01740234 135.86056641 117.01740234 135.86056641 117.03515625 137.12109375 C116.9375 139.1875 116.9375 139.1875 115.9375 140.1875 C113.93586123 140.2042793 111.93355136 140.15012541 109.93359375 140.06640625 C108.71865234 140.01806641 107.50371094 139.96972656 106.25195312 139.91992188 C104.97255859 139.86384766 103.69316406 139.80777344 102.375 139.75 C101.09173828 139.69779297 99.80847656 139.64558594 98.48632812 139.59179688 C95.30316609 139.4616304 92.12027996 139.32664999 88.9375 139.1875 C88.9375 135.8875 88.9375 132.5875 88.9375 129.1875 C89.9275 128.8575 90.9175 128.5275 91.9375 128.1875 C91.6075 127.8575 91.2775 127.5275 90.9375 127.1875 C90.6640625 125.04296875 90.6640625 125.04296875 90.5625 122.375 C90.51351562 121.50230469 90.46453125 120.62960937 90.4140625 119.73046875 C91.15277909 116.14162921 93.04636363 115.35687172 95.9375 113.1875 C97.5840572 111.06496324 99.12054074 108.96654955 100.625 106.75 C101.48879321 105.50765727 102.35474094 104.26681024 103.22265625 103.02734375 C103.66496582 102.39554199 104.10727539 101.76374023 104.56298828 101.11279297 C106.81875328 97.9531193 109.18443615 94.88065186 111.5625 91.8125 C112.00037842 91.24732666 112.43825684 90.68215332 112.8894043 90.09985352 C113.90343262 88.79417717 114.92014223 87.49058378 115.9375 86.1875 C114.27013592 84.14279751 113.41252434 83.26183079 110.76098633 82.84692383 C109.93880615 82.86263428 109.11662598 82.87834473 108.26953125 82.89453125 C107.37685547 82.90419922 106.48417969 82.91386719 105.56445312 82.92382812 C104.63568359 82.94896484 103.70691406 82.97410156 102.75 83 C101.80962891 83.01353516 100.86925781 83.02707031 99.90039062 83.04101562 C97.57884962 83.07636904 95.25846347 83.12571326 92.9375 83.1875 C92.87691406 84.07953125 92.81632813 84.9715625 92.75390625 85.890625 C92.67011719 87.06109375 92.58632812 88.2315625 92.5 89.4375 C92.37818359 91.17773438 92.37818359 91.17773438 92.25390625 92.953125 C92.00194502 95.52872868 91.5976945 97.70930719 90.9375 100.1875 C90.44832727 103.32396044 89.98727123 106.46345957 89.53515625 109.60546875 C89.33792969 110.45753906 89.14070312 111.30960937 88.9375 112.1875 C87.9475 112.6825 87.9475 112.6825 86.9375 113.1875 C87.123125 113.97125 87.30875 114.755 87.5 115.5625 C87.9375 118.1875 87.9375 118.1875 86.9375 120.1875 C86.2775 120.1875 85.6175 120.1875 84.9375 120.1875 C84.80021484 121.18330078 84.80021484 121.18330078 84.66015625 122.19921875 C83.72386721 126.07090045 82.10268257 129.42489449 80.375 133 C80.04564453 133.69287109 79.71628906 134.38574219 79.37695312 135.09960938 C78.56877749 136.79794948 77.75381623 138.49305769 76.9375 140.1875 C76.2775 140.1875 75.6175 140.1875 74.9375 140.1875 C74.9375 141.1775 74.9375 142.1675 74.9375 143.1875 C74.2775 143.1875 73.6175 143.1875 72.9375 143.1875 C72.69773438 143.74050781 72.45796875 144.29351562 72.2109375 144.86328125 C63.09766246 161.49640594 43.22097071 172.13073546 25.75 177.625 C2.86367089 184.17654222 -21.72029213 181.41844266 -42.50390625 170.19140625 C-57.55575197 161.8038569 -71.27005656 149.80190371 -79.0625 134.1875 C-79.0625 133.5275 -79.0625 132.8675 -79.0625 132.1875 C-79.7225 132.1875 -80.3825 132.1875 -81.0625 132.1875 C-82.39583333 128.85416667 -83.72916667 125.52083333 -85.0625 122.1875 C-85.41441406 121.34832031 -85.76632813 120.50914062 -86.12890625 119.64453125 C-87.02636965 117.28258783 -87.61954181 115.03457282 -88.125 112.5625 C-88.65246268 110.0080113 -89.23461292 107.67116124 -90.0625 105.1875 C-90.26843952 100.6301795 -90.24830098 96.07044475 -90.24780273 91.5090332 C-90.24998863 89.26168872 -90.26815452 87.01483576 -90.28710938 84.76757812 C-90.2900437 83.33593917 -90.29202823 81.9042979 -90.29296875 80.47265625 C-90.29707764 79.17207275 -90.30118652 77.87148926 -90.30541992 76.53149414 C-90.07760602 73.39544695 -89.65009773 71.82218745 -88.0625 69.1875 C-87.84031183 67.79676661 -87.65607228 66.39969582 -87.5 65 C-83.96985715 46.44622595 -68.22667916 27.56552125 -53.5 16.625 C-36.79873469 5.41241343 -20.11098459 -0.20335748 0 0 Z M-2.60483742 7.48374176 C-3.52017785 8.40184757 -3.52017785 8.40184757 -4.45401001 9.33850098 C-5.50569618 10.38606316 -5.50569618 10.38606316 -6.57862854 11.45478821 C-7.73200966 12.61895515 -7.73200966 12.61895515 -8.90869141 13.80664062 C-9.71852982 14.61618698 -10.52836823 15.42573334 -11.36274719 16.2598114 C-14.05128362 18.94974655 -16.73265759 21.64670739 -19.4140625 24.34375 C-21.27164931 26.20506501 -23.12967677 28.06594035 -24.98812866 29.9263916 C-29.38719978 34.33168712 -33.78114647 38.74205758 -38.17329347 43.15425539 C-43.17293598 48.17622707 -48.17823636 53.1925432 -53.18402982 58.20838261 C-63.48317866 68.52845519 -73.77517256 78.85564367 -84.0625 89.1875 C-82.69042243 92.26428681 -81.12757306 94.37030642 -78.74691772 96.74359131 C-78.06262192 97.43063644 -77.37832611 98.11768158 -76.67329407 98.82554626 C-75.9230748 99.56857498 -75.17285553 100.3116037 -74.39990234 101.07714844 C-73.60957108 101.86777176 -72.81923981 102.65839508 -72.00495911 103.47297668 C-69.39083109 106.08571109 -66.76968956 108.69128954 -64.1484375 111.296875 C-62.33482057 113.10676192 -60.52164463 114.91709083 -58.70889282 116.72784424 C-54.42375966 121.00612071 -50.13420349 125.27991301 -45.84247172 129.55156636 C-40.95586221 134.41581018 -36.0749401 139.28574386 -31.19448543 144.15616179 C-21.15680211 154.17294799 -11.11200407 164.18257421 -1.0625 174.1875 C1.99525179 172.82165283 4.09631191 171.27661635 6.45562744 168.90988159 C7.13425842 168.23399994 7.8128894 167.55811829 8.51208496 166.86175537 C9.24576294 166.12088684 9.97944092 165.38001831 10.73535156 164.61669922 C11.51622131 163.83612152 12.29709106 163.05554382 13.10162354 162.25131226 C15.68189273 159.66964955 18.25500522 157.08097442 20.828125 154.4921875 C22.61559165 152.70099081 24.40350032 150.91023512 26.1918335 149.11990356 C30.41698631 144.88789428 34.6376546 140.65146242 38.85618377 136.41285431 C43.65996886 131.58670285 48.46944442 126.76623937 53.27940416 121.94624305 C63.17177667 112.03297392 73.05698887 102.11259034 82.9375 92.1875 C81.60155187 85.87559225 77.83148144 82.52810566 73.3984375 78.16259766 C72.62107239 77.38143585 71.84370728 76.60027405 71.04278564 75.79544067 C68.47568791 73.22094459 65.89449366 70.66111226 63.3125 68.1015625 C61.52580103 66.31724774 59.73984074 64.53219303 57.95458984 62.74642944 C54.21480909 59.00977516 50.4686539 55.27969168 46.71679688 51.55517578 C42.3759188 47.24581422 38.04564934 42.92602191 33.72123528 38.60014307 C29.56033209 34.43802079 25.39364014 30.28173859 21.22393799 26.12842941 C19.44923505 24.36010867 17.67575658 22.59055821 15.90350342 20.81978226 C13.43285254 18.35344503 10.9557436 15.89379361 8.4765625 13.43603516 C7.73883606 12.69740234 7.00110962 11.95876953 6.24102783 11.19775391 C5.5680365 10.53329254 4.89504517 9.86883118 4.20166016 9.18423462 C3.61615387 8.60208002 3.03064758 8.01992542 2.42739868 7.42012978 C0.31771922 5.67474014 -0.51708314 5.72910996 -2.60483742 7.48374176 Z M89.9375 80.1875 C89.9375 82.8275 89.9375 85.4675 89.9375 88.1875 C90.2675 88.1875 90.5975 88.1875 90.9375 88.1875 C90.9375 85.5475 90.9375 82.9075 90.9375 80.1875 C90.6075 80.1875 90.2775 80.1875 89.9375 80.1875 Z M168.9375 80.1875 C169.9375 83.1875 169.9375 83.1875 169.9375 83.1875 Z M221.9375 99.1875 C221.9375 99.8475 221.9375 100.5075 221.9375 101.1875 C221.21304687 101.23648438 220.48859375 101.28546875 219.7421875 101.3359375 C210.64764696 101.96848081 210.64764696 101.96848081 202.5625 105.875 C200.2487816 109.16759926 200.29537126 111.26337993 200.9375 115.1875 C205.16050497 118.61155808 209.56152593 119.73606878 214.9375 119.1875 C217.1875 117.4375 217.1875 117.4375 218.9375 115.1875 C219.494375 114.671875 220.05125 114.15625 220.625 113.625 C223.25311553 110.74658775 223.04783621 107.68338844 223 104 C222.99097656 103.09894531 222.98195313 102.19789063 222.97265625 101.26953125 C222.96105469 100.58246094 222.94945312 99.89539063 222.9375 99.1875 C222.6075 99.1875 222.2775 99.1875 221.9375 99.1875 Z M148.9375 109.1875 C149.9375 111.1875 149.9375 111.1875 149.9375 111.1875 Z " fill="#020002" transform="translate(163.0625,159.8125)"/>
<path d="M0 0 C2.75569447 2.18159145 4.43588747 3.87177494 6 7 C6.59873168 12.26883876 5.25400021 14.8846468 2 19 C-1.7489923 20.87449615 -5.92720547 20.65855233 -10 20 C-12.84064179 18.30063151 -13.34854524 17.08271556 -15 14 C-15.91506578 9.77091223 -15.4917442 6.77039925 -13.125 3.0625 C-9.24699241 -0.70144855 -5.21240222 -0.82822281 0 0 Z " fill="#FDFAFD" transform="translate(168,240)"/>
<path d="M0 0 C0 3 0 3 -2.25 5.375 C-3.1575 6.24125 -4.065 7.1075 -5 8 C-5.721875 8.928125 -6.44375 9.85625 -7.1875 10.8125 C-7.785625 11.534375 -8.38375 12.25625 -9 13 C-9.66 13 -10.32 13 -11 13 C-11 13.66 -11 14.32 -11 15 C-12.65002828 16.35386936 -14.3174387 17.68678142 -16 19 C-16.33 19.66 -16.66 20.32 -17 21 C-17.66 21 -18.32 21 -19 21 C-19 21.66 -19 22.32 -19 23 C-20.35546875 24.33203125 -20.35546875 24.33203125 -22.1875 25.8125 C-26.28121646 29.21011892 -30.03214613 32.54821919 -33 37 C-33.66 37 -34.32 37 -35 37 C-35 37.66 -35 38.32 -35 39 C-36.35546875 40.33203125 -36.35546875 40.33203125 -38.1875 41.8125 C-42.28121646 45.21011892 -46.03214613 48.54821919 -49 53 C-49.66 53 -50.32 53 -51 53 C-51 53.66 -51 54.32 -51 55 C-52.53125 56.5078125 -52.53125 56.5078125 -54.5 58.125 C-55.1496875 58.66382813 -55.799375 59.20265625 -56.46875 59.7578125 C-56.9740625 60.16773438 -57.479375 60.57765625 -58 61 C-58.66 60.67 -59.32 60.34 -60 60 C-40.2 40.2 -20.4 20.4 0 0 Z " fill="#0A000C" transform="translate(244,253)"/>
<path d="M0 0 C0.66 0.33 1.32 0.66 2 1 C-5.59 8.59 -13.18 16.18 -21 24 C-21 21 -21 21 -19.28515625 19.0625 C-18.18494141 18.0415625 -18.18494141 18.0415625 -17.0625 17 C-13.79342946 13.99859051 -13.79342946 13.99859051 -12 10 C-10.948125 9.38125 -10.948125 9.38125 -9.875 8.75 C-5.99373726 6.38749224 -3.115839 3.27746754 0 0 Z " fill="#0D000F" transform="translate(134,192)"/>
<path d="M0 0 C8.25 0 16.5 0 25 0 C25.33 0.66 25.66 1.32 26 2 C25.34 2 24.68 2 24 2 C23.67 2.66 23.34 3.32 23 4 C22.67 3.01 22.34 2.02 22 1 C15.4 1.33 8.8 1.66 2 2 C1.67 3.98 1.34 5.96 1 8 C1.66 8 2.32 8 3 8 C3 8.66 3 9.32 3 10 C2.01 10 1.02 10 0 10 C0 6.7 0 3.4 0 0 Z " fill="#0B0011" transform="translate(252,289)"/>
<path d="M0 0 C1.9375 0.8125 1.9375 0.8125 4 2 C4.33 2.99 4.66 3.98 5 5 C6.57033897 6.48182994 6.57033897 6.48182994 8.4375 7.875 C11.41355166 10.31438661 12.9895372 12.18269609 14 16 C8.70987876 11.59156563 3.81191572 6.92440206 -1 2 C-0.67 1.34 -0.34 0.68 0 0 Z " fill="#0D0011" transform="translate(164,164)"/>
<path d="M0 0 C0.66 0.33 1.32 0.66 2 1 C-0.31 3.31 -2.62 5.62 -5 8 C-5.33 6.68 -5.66 5.36 -6 4 C-4.02 2.68 -2.04 1.36 0 0 Z " fill="#0B000E" transform="translate(94,232)"/>
<path d="M0 0 C0.66 0.33 1.32 0.66 2 1 C-0.31 3.31 -2.62 5.62 -5 8 C-5.33 6.68 -5.66 5.36 -6 4 C-4.02 2.68 -2.04 1.36 0 0 Z " fill="#0B000E" transform="translate(110,216)"/>
<path d="M0 0 C0.66 0.33 1.32 0.66 2 1 C-0.31 3.31 -2.62 5.62 -5 8 C-5.33 6.68 -5.66 5.36 -6 4 C-4.02 2.68 -2.04 1.36 0 0 Z " fill="#0B000E" transform="translate(142,184)"/>
<path d="M0 0 C0 3 0 3 -2.375 5.625 C-5 8 -5 8 -7 9 C-5.44499019 5.18315774 -2.96404505 2.80804268 0 0 Z " fill="#10010F" transform="translate(172,325)"/>
<path d="M0 0 C0.66 0.33 1.32 0.66 2 1 C2 1.66 2 2.32 2 3 C0.46875 4.2890625 0.46875 4.2890625 -1.5 5.625 C-2.1496875 6.07101563 -2.799375 6.51703125 -3.46875 6.9765625 C-3.9740625 7.31429687 -4.479375 7.65203125 -5 8 C-3.8141763 4.62496331 -2.72426311 2.35277269 0 0 Z " fill="#0B000E" transform="translate(93,193)"/>
<path d="M0 0 C0.33 0.66 0.66 1.32 1 2 C-3.75 6.875 -3.75 6.875 -6 8 C-4.55746343 4.63408134 -2.66735273 2.48952921 0 0 Z " fill="#0B000E" transform="translate(101,184)"/>
<path d="M0 0 C1 4 1 4 1 4 Z " fill="#000000" transform="translate(294,280)"/>
<path d="" fill="#000000" transform="translate(0,0)"/>
<path d="" fill="#000000" transform="translate(0,0)"/>
<path d="" fill="#000000" transform="translate(0,0)"/>
<path d="" fill="#000000" transform="translate(0,0)"/>
</svg>
